<svg xmlns="http://www.w3.org/2000/svg" viewBox="0 0 18.59 16.22">
  <defs>
    <style>
      .a {
        fill: #fff;
      }
    </style>
  </defs>
  <title>unmuteButton</title>
  <g>
    <path class="a" d="M442.06,294.06l-5.24-4.84H433.5v-6.53h3.32l5.24-4.85v16.22Z" transform="translate(-433.5 -277.84)"/>
    <path class="a" d="M451.43,279.48a0.52,0.52,0,0,1-.29.47l-2.37,1.43a11,11,0,0,1-2.25,1.16A0.5,0.5,0,0,1,446,282a0.53,0.53,0,0,1,.29-0.48l2.37-1.43a11,11,0,0,1,2.25-1.16A0.5,0.5,0,0,1,451.43,279.48Zm0.66,6.52a0.49,0.49,0,0,1-.56.56h-5a0.56,0.56,0,0,1,0-1.11h5A0.49,0.49,0,0,1,452.09,286Zm-0.66,6.61a0.5,0.5,0,0,1-.56.58,10.93,10.93,0,0,1-2.25-1.17l-2.37-1.43a0.52,0.52,0,0,1-.29-0.47,0.5,0.5,0,0,1,.56-0.58,10.93,10.93,0,0,1,2.25,1.17l2.37,1.43A0.52,0.52,0,0,1,451.43,292.61Z" transform="translate(-433.5 -277.84)"/>
  </g>
</svg>
